<?xml version="1.0" encoding="UTF-8"?><svg id="Layer_1" xmlns="http://www.w3.org/2000/svg" viewBox="0 0 200 200"><defs><style>.cls-1{fill:#fff;}</style></defs><path class="cls-1" d="M152.05,91.79s-.38-.3-.61-.34l-12.03-2.21-.42-1.37c-.38-1.33-.88-2.66-1.45-3.96-.53-1.29-1.14-2.66-1.79-3.85l-.69-1.26,6.78-9.78.11-.15s.23-.46.19-.69c0-.27-.08-.49-.27-.65l-11.88-11.84c-.19-.15-.38-.27-.61-.3-.23,0-.49.04-.69.19l-10.05,6.89-1.26-.69c-1.26-.65-2.55-1.26-3.88-1.79-1.29-.53-2.63-1.03-4-1.45l-1.37-.42-2.17-11.69v-.19c0-.23-.11-.46-.3-.61-.19-.19-.46-.27-.69-.27h-16.87c-.23,0-.46.11-.65.27-.15.11-.3.34-.34.53l-2.21,11.95-1.37.42c-1.33.42-2.7.91-4,1.45-1.33.53-2.59,1.14-3.85,1.83l-1.22.65-9.9-6.78-.15-.11c-.19-.15-.46-.23-.69-.23-.27,0-.49.11-.65.3l-11.92,11.84s-.23.38-.27.61c0,.23.04.49.19.69l6.93,10.01-.69,1.22c-.65,1.26-1.26,2.51-1.83,3.85-.57,1.37-1.07,2.66-1.45,4l-.42,1.33-11.76,2.17h-.15c-.27,0-.49.15-.69.34-.15.19-.23.42-.23.69v16.68c0,.27.08.49.23.65.15.19.34.3.61.34l11.99,2.21.42,1.37c.42,1.33.91,2.66,1.48,3.96.49,1.33,1.1,2.63,1.79,3.85l.69,1.26-6.78,9.78-.11.15c-.15.23-.23.46-.19.72,0,.23.11.46.3.65l11.88,11.84s.38.27.61.27.46-.04.65-.19l10.09-6.89,1.26.69c1.22.65,2.51,1.26,3.85,1.83,1.33.53,2.66.99,4,1.41l1.37.42,2.17,11.69v.19c.04.23.15.46.34.65.19.15.42.23.69.23h16.79c.23,0,.46-.08.65-.19.15-.15.3-.34.34-.57l2.21-11.95,1.37-.42c1.33-.38,2.66-.88,4-1.41,1.33-.53,2.63-1.14,3.88-1.83l1.26-.65,9.82,6.74.15.11s.46.23.69.19c.27,0,.49-.11.69-.27l11.88-11.84s.27-.38.3-.61c0-.23-.08-.46-.19-.69l-6.93-10.01.69-1.22c.65-1.26,1.26-2.51,1.83-3.85.53-1.33.99-2.66,1.41-3.96l.42-1.37,12.03-2.21c.23-.04.46-.15.61-.34s.23-.42.23-.65v-16.68c0-.27-.08-.49-.23-.69ZM114.82,118.97c-.53.53-1.1,1.07-1.68,1.56-10.13,8.53-25.74,7.84-34.87-1.56-10.13-10.32-10.13-26.08,0-36.4.53-.53,1.1-1.07,1.68-1.56,10.13-8.53,25.74-7.84,34.87,1.56,10.09,10.32,10.09,26.08,0,36.4Z"/><path class="cls-1" d="M190.2,127.27c-.76-1.98-2.97-2.93-4.91-2.17l-4.87,1.87c1.41-4.26,2.55-8.64,3.27-13.1,7.23-45.8-24.18-88.93-69.97-96.17-2.06-.34-4.04,1.1-4.34,3.16-.34,2.09,1.1,4.04,3.16,4.34,41.65,6.59,70.2,45.8,63.62,87.45-.53,3.46-1.41,6.85-2.44,10.16l-1.75-4.19c-.8-1.94-3.05-2.86-4.99-2.06-1.94.8-2.86,3.05-2.06,4.99l5.44,12.98c.49,1.14,1.45,1.9,2.55,2.21.46.19.95.34,1.48.34.46,0,.91-.08,1.37-.27l12.22-4.72c1.98-.76,2.93-2.97,2.17-4.91l.04.08Z"/><path class="cls-1" d="M160.5,155.33c-2.59,2.97-5.41,5.79-8.38,8.38-33.12,28.74-82.54,26.8-113.41-3.27l4.19.61c.19,0,.38.04.57.04,1.87,0,3.46-1.37,3.77-3.24.3-2.09-1.1-4.04-3.2-4.34l-13.93-2.09h0c-2.09-.27-4,1.14-4.34,3.2l-2.09,13.93c-.3,2.09,1.1,4.04,3.2,4.34.19,0,.38.04.57.04,1.87,0,3.46-1.37,3.77-3.24l.8-5.22c17.74,18.08,41.46,27.34,65.29,27.34,21.24,0,42.64-7.35,59.92-22.35,3.24-2.82,6.32-5.9,9.14-9.14,1.37-1.6,1.22-4-.38-5.37-1.6-1.37-4-1.22-5.37.38h-.11Z"/><path class="cls-1" d="M66.7,29.2c3.24-1.22,7.84-2.4,11.99-3.16l-3.12,3.24c-1.45,1.52-1.41,3.92.11,5.37.72.72,1.68,1.07,2.63,1.07s2.02-.38,2.74-1.18l9.75-10.16h0c1.45-1.52,1.41-3.92-.11-5.37l-10.16-9.75c-1.52-1.45-3.92-1.41-5.37.11s-1.41,3.92.11,5.37l3.69,3.54c-5.06.8-10.89,2.28-15,3.81C20.63,38.45-1.38,87.07,14.99,130.43c.57,1.52,2.02,2.47,3.58,2.47.46,0,.91-.08,1.33-.23,1.98-.72,2.97-2.93,2.21-4.91-14.89-39.48,5.14-83.68,44.58-98.57Z"/></svg>