<?xml version="1.0" encoding="UTF-8"?><svg id="Layer_1" xmlns="http://www.w3.org/2000/svg" xmlns:xlink="http://www.w3.org/1999/xlink" viewBox="0 0 200 200"><defs><style>.cls-1{fill:url(#linear-gradient);}</style><linearGradient id="linear-gradient" x1="21.51" y1="100" x2="178.49" y2="100" gradientUnits="userSpaceOnUse"><stop offset="0" stop-color="#0e90a2"/><stop offset=".32" stop-color="#19a574"/><stop offset="1" stop-color="#90c43c"/></linearGradient></defs><g id="icons_Q2"><path class="cls-1" d="M100,4.06S21.51,26.3,21.51,30.22v79.36c0,40.12,58,75.44,74.13,85.03,2.64,1.76,6.08,1.76,8.72,0,16.57-9.16,74.13-44.91,74.13-85.03V30.22c0-3.92-78.49-26.16-78.49-26.16ZM140.99,75.57l-47.97,47.97c-3.09,3.37-8.33,3.6-11.71.5-.17-.16-.34-.33-.5-.5l-21.37-21.37c-3.24-3.05-3.96-7.92-1.74-11.77,2.79-3.93,8.23-4.85,12.16-2.07.49.35.95.75,1.36,1.19l15.7,15.7,41.86-41.86c3.85-2.89,9.32-2.11,12.21,1.74,2.33,3.1,2.33,7.36,0,10.47Z"/></g></svg>